<?xml version="1.0" standalone="no"?>
<!DOCTYPE svg PUBLIC "-//W3C//DTD SVG 20010904//EN"
 "http://www.w3.org/TR/2001/REC-SVG-20010904/DTD/svg10.dtd">
<svg version="1.0" xmlns="http://www.w3.org/2000/svg"
 width="593.000000pt" height="593.000000pt" viewBox="0 0 593.000000 593.000000"
 preserveAspectRatio="xMidYMid meet">

<g transform="translate(0.000000,593.000000) scale(0.100000,-0.100000)"
fill="#000000" stroke="none">
<path d="M450 5890 c0 -12 -12 -32 -26 -45 -30 -28 -69 -31 -173 -15 -35 6
-65 9 -67 7 -2 -2 29 -30 70 -62 70 -54 96 -87 96 -120 0 -28 -25 -67 -51 -81
-62 -32 -102 -11 -179 95 -24 33 -46 59 -47 57 -2 -2 2 -45 8 -95 15 -108 3
-149 -50 -171 l-31 -12 0 -372 0 -372 33 -69 c29 -59 144 -221 243 -343 l27
-33 -45 -102 c-125 -280 -209 -581 -243 -877 -20 -169 -20 -558 0 -715 41
-317 116 -585 244 -871 23 -51 41 -96 41 -102 0 -5 -19 -32 -43 -58 -82 -92
-172 -219 -214 -302 l-43 -83 0 -372 0 -372 30 -13 c36 -17 60 -59 59 -104 -1
-32 -16 -93 -18 -73 -1 6 -17 35 -36 65 l-34 55 -1 -167 0 -168 56 0 56 0 -7
75 c-7 72 -6 77 20 116 44 63 91 99 129 99 40 0 81 -30 90 -66 13 -49 -10 -86
-90 -148 -41 -32 -74 -59 -72 -61 2 -2 26 1 53 5 80 14 159 12 181 -5 15 -11
57 -14 198 -15 l180 0 -45 28 c-54 35 -110 98 -141 161 -32 66 -33 234 -2 302
63 135 215 208 312 149 62 -38 67 -121 11 -161 -28 -19 -34 -20 -68 -9 -119
39 -207 -104 -156 -251 20 -57 85 -122 149 -150 89 -39 246 -25 246 21 0 10
-16 30 -35 44 -28 22 -35 34 -35 61 0 24 6 38 19 45 36 19 47 13 43 -24 -3
-27 1 -37 23 -55 65 -50 165 -12 319 123 l56 49 40 -18 c22 -10 40 -22 40 -26
0 -25 -277 -230 -363 -270 l-42 -19 66 0 c63 0 70 3 135 47 60 40 191 143 248
195 18 16 21 16 65 -6 150 -76 382 -161 563 -206 l122 -30 618 0 c580 0 622 1
702 20 166 39 405 122 562 196 39 19 76 34 82 34 7 0 55 -36 108 -79 52 -44
126 -100 164 -125 63 -43 72 -46 132 -46 l63 1 -58 30 c-75 39 -151 91 -260
181 l-88 72 23 18 c45 36 66 34 111 -9 111 -105 192 -152 263 -153 57 0 88 26
87 74 -1 40 10 45 45 20 38 -27 24 -82 -28 -109 -45 -23 -40 -51 13 -67 185
-53 372 71 372 247 0 71 -23 118 -76 153 -34 23 -61 25 -116 7 -17 -5 -29 0
-53 23 -41 41 -41 89 -1 134 28 31 33 33 98 33 79 -1 110 -15 171 -75 71 -72
107 -205 82 -311 -26 -112 -97 -210 -183 -253 -30 -15 -22 -16 154 -16 154 0
189 3 199 15 15 18 85 20 174 5 33 -5 61 -8 63 -7 1 2 -26 25 -62 51 -83 61
-105 89 -105 136 0 53 39 90 93 90 34 0 46 -6 80 -42 21 -24 53 -62 69 -86 16
-24 31 -42 33 -40 2 2 -1 26 -5 53 -5 28 -9 77 -9 111 -1 52 2 64 24 84 l25
23 -1 221 0 221 -21 -54 c-29 -73 -105 -153 -181 -191 -199 -98 -446 0 -482
192 -10 51 2 92 35 128 22 24 36 30 68 30 33 0 45 -6 71 -35 33 -38 37 -50 21
-60 -13 -8 -13 -66 0 -99 14 -39 79 -76 144 -83 106 -11 220 70 261 187 28 79
11 221 -28 228 -9 2 -24 -9 -34 -25 -39 -62 -92 -73 -117 -24 -17 33 -12 43
18 35 30 -7 72 28 79 65 13 63 -30 149 -133 267 l-50 57 22 38 c12 22 24 39
28 39 7 0 115 -130 161 -195 54 -76 100 -161 120 -224 l18 -56 0 84 c1 74 -2
90 -26 130 -37 63 -125 184 -190 259 l-55 62 22 48 c86 179 160 388 212 597
l33 130 0 560 c0 552 0 561 -23 655 -51 207 -135 451 -212 614 l-31 66 69 82
c81 98 138 175 175 240 24 41 27 57 27 130 l-1 83 -24 -69 c-14 -38 -36 -87
-49 -110 -28 -49 -130 -192 -151 -213 -9 -8 -27 -30 -41 -49 -15 -19 -29 -34
-33 -34 -4 0 -16 19 -28 43 l-20 42 29 30 c61 63 129 162 143 209 26 86 -10
154 -76 144 -19 -2 -23 1 -21 17 6 32 22 45 58 45 29 0 38 -6 59 -41 16 -25
32 -39 42 -37 23 4 41 62 42 130 2 145 -101 271 -233 285 -109 11 -196 -47
-196 -132 0 -24 4 -46 10 -50 27 -17 -41 -95 -82 -95 -71 0 -113 51 -112 134
2 182 225 303 436 235 63 -20 82 -31 139 -88 46 -47 71 -82 86 -121 l22 -55 0
219 1 218 -25 30 c-20 24 -25 40 -24 86 0 31 4 80 9 107 4 28 7 51 6 52 -2 2
-29 -30 -61 -71 -80 -102 -125 -120 -184 -70 -25 21 -31 34 -31 65 0 46 33 88
115 144 30 21 53 40 51 42 -2 2 -32 -1 -67 -7 -111 -18 -147 -14 -180 19 -16
16 -29 37 -29 45 0 14 -39 16 -360 16 -356 0 -360 0 -412 -24 -71 -31 -203
-122 -311 -213 -59 -50 -93 -73 -105 -70 -9 3 -75 31 -146 62 -245 107 -480
174 -773 221 -132 21 -555 30 -705 15 -331 -34 -639 -115 -931 -245 -71 -32
-134 -55 -140 -52 -7 2 -47 34 -89 69 -107 91 -196 152 -284 198 l-75 39 -365
0 c-360 0 -364 0 -364 -20z m674 -30 c38 -11 103 -39 144 -62 83 -48 301 -217
302 -234 0 -6 -18 -19 -40 -29 l-40 -18 -62 55 c-109 95 -172 131 -236 136
-48 3 -61 0 -80 -18 -18 -17 -23 -31 -20 -56 4 -37 1 -39 -37 -22 -44 20 -31
88 23 117 16 8 22 20 20 34 -2 17 -14 25 -53 35 -100 26 -212 -7 -287 -85 -47
-49 -68 -99 -68 -165 0 -118 80 -198 171 -168 34 11 40 10 68 -9 58 -41 51
-121 -14 -161 -68 -42 -187 -11 -255 66 -60 69 -75 116 -75 234 1 125 17 171
92 251 78 84 161 117 293 118 56 1 108 -6 154 -19z m4002 5 c253 -75 349 -419
167 -598 -89 -88 -197 -101 -270 -34 -56 50 -7 168 62 151 81 -20 135 2 169
70 28 58 30 104 7 170 -39 112 -140 180 -266 181 -76 0 -130 -20 -130 -47 0
-9 16 -27 35 -40 45 -30 53 -78 18 -102 -34 -24 -44 -20 -45 21 -1 48 -31 73
-87 73 -70 -1 -145 -43 -258 -147 -26 -24 -52 -43 -59 -43 -6 0 -28 10 -47 22
l-35 22 39 34 c77 69 249 192 308 221 34 17 86 37 116 45 73 19 213 20 276 1z
m-1741 -104 c487 -73 920 -252 1300 -534 466 -347 823 -836 1009 -1380 151
-445 191 -954 109 -1417 -16 -94 -66 -301 -89 -368 -205 -611 -563 -1104
-1064 -1462 -395 -283 -810 -446 -1311 -516 -155 -22 -527 -25 -679 -5 -705
89 -1323 405 -1788 915 -396 432 -634 938 -728 1546 -26 165 -26 607 -1 770
81 513 257 943 542 1322 396 528 944 899 1567 1062 181 47 294 66 533 90 102
10 476 -4 600 -23z m-2400 -41 c-23 -45 -19 -102 9 -133 36 -39 93 -53 139
-33 44 18 55 40 33 65 -23 25 -20 31 17 31 41 0 97 -30 167 -89 95 -79 94 -78
37 -108 -18 -9 -51 -30 -73 -47 -23 -17 -52 -38 -64 -46 -13 -8 -66 -48 -119
-89 -241 -187 -506 -479 -666 -736 -42 -66 -65 -90 -65 -67 0 4 -17 25 -38 47
-57 60 -102 140 -102 180 0 37 10 44 30 20 21 -25 47 -17 64 19 21 44 20 69
-3 114 -30 59 -94 78 -155 47 -15 -8 -31 -15 -34 -15 -2 0 -2 23 1 51 8 69 48
134 105 171 41 26 54 29 104 26 43 -3 64 -10 83 -28 24 -22 35 -70 16 -70 -37
0 -4 -99 48 -142 129 -109 303 42 252 219 l-9 32 61 -5 c53 -5 69 -2 106 18
53 28 79 61 91 112 17 75 -23 146 -102 182 -32 14 -43 15 -56 6 -31 -23 -43
-25 -67 -12 -31 17 -45 51 -45 115 0 45 5 60 33 97 39 52 123 98 179 98 l39 0
-16 -30z m4122 -2 c93 -47 137 -158 96 -238 -23 -45 -64 -61 -92 -36 -18 16
-25 17 -50 6 -42 -17 -93 -57 -108 -83 -17 -31 -16 -102 3 -139 34 -66 113
-104 194 -95 l51 6 -8 -37 c-21 -108 15 -199 94 -234 80 -35 151 -11 200 70
27 43 29 69 8 92 -12 13 -13 23 -6 43 20 51 113 73 184 43 66 -27 127 -122
127 -197 l0 -40 -32 17 c-40 21 -102 13 -134 -17 -24 -22 -40 -76 -35 -114 7
-54 59 -85 79 -49 11 20 32 10 32 -15 0 -35 -30 -89 -90 -166 -67 -83 -74 -85
-107 -21 -14 29 -138 206 -174 251 -222 271 -432 467 -687 638 -65 43 -118 80
-120 82 -6 6 143 127 180 146 21 10 53 19 73 19 36 0 47 -13 20 -24 -8 -3 -15
-16 -15 -30 0 -35 73 -63 123 -47 75 25 106 102 68 167 l-22 37 50 -5 c28 -3
72 -16 98 -30z m-4597 -434 c71 -20 148 -77 178 -132 62 -112 23 -242 -73
-242 -64 0 -102 49 -84 109 26 86 -41 161 -152 169 -167 12 -309 -168 -269
-341 21 -89 40 -98 82 -37 33 48 76 55 102 18 25 -35 20 -48 -13 -42 -23 5
-35 1 -55 -19 -56 -56 -24 -154 93 -292 l64 -76 -19 -35 c-11 -20 -22 -38 -26
-40 -9 -6 -101 104 -174 208 -60 85 -99 163 -120 241 -18 68 -18 199 1 259 61
202 260 310 465 252z m-146 -3793 l19 -40 -65 -75 c-35 -41 -76 -99 -91 -128
-50 -99 -28 -182 47 -182 40 0 44 -10 20 -44 -25 -36 -73 -27 -103 21 -13 20
-30 37 -37 37 -19 0 -41 -46 -49 -102 -9 -62 23 -169 65 -221 73 -87 194 -120
280 -75 78 40 99 89 75 174 -5 14 2 31 20 52 36 43 91 45 136 4 27 -24 33 -37
37 -85 11 -138 -111 -258 -280 -273 -157 -15 -296 62 -368 203 -34 66 -35 71
-35 188 0 155 20 215 127 373 52 77 164 212 176 212 4 0 15 -18 26 -39z m125
-213 c224 -336 520 -630 864 -857 42 -28 77 -55 76 -59 -1 -12 -122 -109 -170
-136 -64 -37 -139 -34 -94 4 25 21 17 47 -19 64 -19 9 -44 16 -55 16 -31 0
-98 -36 -111 -59 -15 -29 -12 -94 5 -117 21 -28 18 -34 -15 -34 -91 0 -197 77
-218 161 -24 96 37 186 100 146 20 -14 28 -14 63 -2 22 8 55 31 73 51 28 33
32 44 32 97 0 73 -26 114 -96 147 -38 19 -56 22 -106 16 -54 -5 -59 -4 -53 12
17 44 17 113 1 156 -55 145 -234 153 -296 13 -17 -39 -16 -77 2 -77 23 0 1
-56 -31 -77 -112 -76 -281 48 -281 205 0 34 0 35 20 17 10 -9 39 -20 64 -22
42 -5 48 -3 80 29 44 44 53 80 35 132 -16 47 -51 61 -74 29 -33 -45 -37 39 -5
95 25 42 121 162 129 162 3 0 39 -50 80 -112z m5126 45 c59 -72 95 -136 95
-171 0 -27 -20 -39 -32 -18 -14 25 -53 20 -66 -9 -33 -72 3 -162 72 -179 35
-9 45 -8 107 18 14 6 15 1 8 -42 -19 -123 -95 -202 -195 -202 -81 0 -146 59
-109 100 22 24 19 50 -14 101 -36 58 -87 84 -148 75 -109 -15 -167 -122 -139
-252 l6 -29 -72 0 c-60 0 -79 -5 -108 -24 -53 -35 -73 -69 -78 -125 -3 -41 1
-58 20 -86 43 -64 124 -100 155 -69 6 6 21 9 33 7 51 -7 84 -101 61 -171 -24
-72 -130 -145 -212 -146 l-37 -1 19 37 c22 43 23 58 8 101 -23 66 -140 91
-190 41 l-21 -21 21 -22 c29 -31 27 -36 -17 -36 -43 0 -121 46 -205 122 l-49
43 109 72 c335 221 682 577 874 895 19 32 37 58 41 58 4 0 32 -30 63 -67z"/>
<path d="M2815 5634 c-76 -6 -196 -24 -232 -35 -47 -15 -43 -39 7 -39 100 0
201 -64 245 -155 80 -163 -40 -392 -217 -414 -67 -8 -75 -30 -24 -63 50 -33
53 -48 14 -81 -69 -58 -175 -69 -258 -27 -44 22 -61 42 -93 106 -69 138 -49
320 43 398 37 30 56 34 44 9 -4 -10 -9 -39 -12 -64 -8 -91 57 -168 149 -177
126 -12 223 115 178 235 -17 46 -77 100 -125 113 -62 18 -178 8 -235 -19 -98
-46 -200 -166 -214 -251 -4 -22 -9 -40 -12 -40 -3 0 -29 11 -58 25 -110 54
-247 55 -348 3 -53 -27 -125 -94 -148 -140 -42 -83 -14 -194 61 -244 35 -23
47 -26 100 -22 101 7 160 69 160 167 0 70 -30 119 -90 149 -51 25 -38 37 42
36 46 -1 67 -7 113 -35 98 -59 175 -166 191 -266 20 -128 -90 -253 -224 -253
l-34 0 4 59 c1 33 0 62 -4 66 -3 3 -26 -9 -51 -28 -84 -64 -208 -73 -311 -21
-101 51 -147 118 -154 228 -5 83 19 154 69 202 31 30 38 54 15 54 -66 0 -455
-360 -555 -514 -28 -43 -51 -85 -51 -92 0 -22 24 -16 51 12 46 50 97 69 184
69 70 0 87 -4 133 -29 151 -84 197 -304 90 -438 -16 -21 -27 -42 -23 -48 3 -6
30 -7 65 -3 l60 6 0 -27 c0 -99 -74 -203 -161 -226 -182 -49 -432 167 -394
339 7 31 25 43 25 16 0 -26 73 -92 117 -105 92 -28 194 38 209 135 27 183
-183 274 -328 141 -43 -39 -94 -126 -108 -185 -19 -80 -8 -179 29 -258 36 -77
36 -73 13 -73 -10 0 -49 -15 -87 -34 -154 -73 -239 -228 -214 -385 18 -114 94
-177 203 -169 56 4 62 7 102 52 72 79 72 161 0 232 -49 50 -98 63 -164 45 -25
-6 -46 -10 -48 -8 -2 2 10 20 27 40 49 59 99 80 204 85 176 8 296 -64 326
-196 16 -71 -22 -179 -74 -211 -16 -10 -23 -6 -56 30 -40 46 -61 46 -61 0 0
-81 -73 -186 -159 -230 -54 -28 -138 -41 -195 -30 -119 22 -215 137 -216 257
0 38 -4 52 -14 52 -65 0 -88 -624 -30 -819 21 -71 40 -67 46 12 6 76 33 131
88 181 58 52 103 69 180 69 150 0 282 -111 298 -250 2 -24 9 -46 15 -50 6 -3
27 13 47 37 43 50 57 49 94 -7 31 -46 48 -126 37 -174 -27 -118 -123 -186
-277 -196 -113 -8 -185 14 -242 73 -52 54 -54 69 -6 49 67 -28 135 -12 186 42
52 55 61 119 27 190 -50 102 -172 128 -267 57 -41 -32 -59 -67 -70 -138 -25
-159 62 -312 221 -386 34 -17 70 -30 80 -30 22 0 21 -8 -3 -48 -49 -81 -63
-218 -31 -310 67 -194 248 -280 369 -176 132 113 31 328 -140 299 -46 -8 -115
-64 -124 -101 -9 -34 -22 -29 -30 11 -19 104 73 246 202 310 101 51 204 42
275 -22 51 -46 67 -77 75 -149 l7 -57 -61 6 c-69 7 -85 -3 -54 -36 93 -102 88
-280 -10 -392 -51 -57 -105 -86 -178 -92 -73 -7 -143 15 -198 62 -68 59 -82
41 -31 -41 53 -82 106 -143 258 -294 174 -172 331 -286 331 -239 0 6 -14 27
-31 47 -49 55 -69 108 -69 182 0 149 108 260 268 276 76 8 136 -7 199 -52 26
-18 50 -29 53 -24 3 5 3 35 0 65 l-6 55 35 0 c68 0 114 -20 163 -70 36 -37 49
-60 58 -101 37 -166 -134 -380 -304 -383 -74 -1 -86 11 -36 36 59 30 90 80 90
146 0 70 -21 111 -72 145 -56 36 -139 38 -189 4 -81 -55 -104 -173 -50 -258
77 -122 222 -185 366 -160 37 7 90 23 118 36 60 30 67 30 67 8 0 -32 56 -137
99 -185 110 -124 324 -156 428 -65 95 83 81 230 -27 285 -83 42 -167 23 -220
-50 -28 -38 -31 -49 -28 -98 2 -30 8 -63 12 -72 12 -27 -9 -22 -47 12 -100 87
-109 301 -19 433 73 107 231 125 333 37 l34 -30 -44 -39 c-55 -49 -51 -71 11
-71 79 0 172 -71 223 -170 11 -21 20 -65 23 -111 4 -68 1 -81 -24 -133 -44
-91 -123 -144 -226 -153 -107 -10 -63 -40 92 -64 117 -17 477 -14 588 5 99 17
136 31 127 47 -4 5 -21 9 -39 9 -111 0 -230 87 -260 189 -20 70 -20 113 2 178
36 101 122 184 207 198 103 16 107 23 39 74 l-45 34 32 33 c33 34 103 64 149
64 151 0 260 -147 248 -336 -6 -85 -43 -172 -88 -204 -42 -30 -49 -25 -33 22
26 77 -11 164 -88 204 -61 31 -156 10 -202 -45 -73 -87 -50 -210 50 -272 33
-21 50 -24 133 -24 84 0 102 3 152 28 95 47 166 129 204 235 10 29 23 50 29
48 177 -80 274 -83 408 -13 91 48 157 144 157 230 0 85 -85 167 -173 167 -190
0 -246 -243 -73 -321 l39 -17 -41 -11 c-147 -40 -352 152 -352 329 0 56 27
125 61 157 37 33 109 63 157 63 l43 0 -7 -60 c-8 -71 1 -76 62 -31 83 61 200
66 310 11 101 -49 148 -126 148 -240 -1 -80 -18 -127 -69 -188 -23 -28 -32
-52 -20 -52 28 0 155 93 274 199 128 115 341 372 341 413 0 15 -35 8 -46 -10
-19 -29 -111 -73 -167 -79 -74 -8 -157 18 -207 63 -106 96 -133 286 -54 389
51 67 47 77 -26 69 l-60 -7 0 47 c0 121 98 216 221 216 73 0 183 -54 240 -118
62 -69 89 -128 89 -193 0 -75 -12 -88 -34 -39 -33 76 -113 113 -194 91 -80
-21 -122 -77 -124 -165 -2 -70 31 -124 94 -155 59 -28 113 -27 177 5 142 71
212 281 150 451 -12 32 -25 62 -30 68 -18 19 -8 31 44 49 158 55 266 200 267
356 0 147 -111 252 -232 219 -115 -30 -167 -172 -99 -266 47 -64 126 -88 196
-59 48 21 47 0 -4 -52 -117 -120 -419 -84 -492 59 -32 64 -37 147 -10 201 12
25 33 56 47 69 l26 24 37 -43 c41 -47 61 -53 61 -19 0 54 31 126 76 176 62 70
135 104 222 104 154 1 263 -100 279 -259 6 -53 15 -66 29 -42 39 62 58 531 30
716 -23 151 -48 187 -60 85 -13 -110 -63 -185 -151 -229 -112 -54 -240 -29
-337 67 -56 55 -88 123 -88 186 0 34 -20 28 -62 -19 l-38 -43 -33 37 c-59 65
-73 158 -36 238 27 61 44 77 114 113 76 39 200 49 286 23 60 -17 123 -64 132
-97 5 -18 3 -20 -16 -13 -12 4 -47 8 -78 8 -46 1 -62 -4 -92 -27 -54 -41 -70
-78 -65 -149 7 -95 70 -158 160 -158 64 0 108 19 145 64 132 161 8 447 -224
516 -41 12 -55 32 -33 45 21 13 50 138 50 214 0 92 -21 153 -78 227 -93 120
-252 139 -331 38 -63 -80 -36 -215 52 -261 40 -21 122 -21 163 0 32 16 84 83
84 108 0 12 2 12 10 -1 5 -8 10 -38 10 -66 0 -142 -159 -299 -316 -312 -54 -4
-128 20 -167 56 -26 23 -63 99 -70 143 -8 55 2 63 67 55 67 -7 72 5 27 62 -83
103 -59 299 46 392 103 90 258 92 360 5 37 -32 63 -44 63 -30 0 29 -83 144
-195 269 -134 151 -380 353 -419 344 -13 -2 -9 -13 24 -56 40 -53 70 -132 70
-182 0 -58 -31 -132 -76 -180 -63 -67 -128 -94 -229 -94 -84 0 -120 12 -178
60 -40 34 -50 23 -42 -49 l7 -60 -56 6 c-152 15 -237 144 -196 294 41 146 211
278 331 258 36 -6 56 -25 26 -25 -22 0 -89 -62 -103 -96 -72 -172 156 -318
283 -182 29 31 53 90 53 131 0 47 -45 131 -92 171 -119 102 -289 122 -430 50
-28 -14 -51 -24 -52 -22 -1 2 -12 30 -25 63 -59 159 -193 255 -354 255 -85 0
-140 -22 -180 -69 -74 -88 -52 -212 48 -268 134 -76 285 46 240 193 -18 59
-17 54 -5 54 5 0 29 -19 53 -43 107 -105 99 -346 -16 -465 -77 -80 -221 -77
-310 6 l-28 27 48 42 c40 35 45 44 33 53 -8 5 -28 10 -45 10 -49 0 -128 43
-173 95 -43 49 -82 146 -82 204 0 106 89 226 189 255 30 9 69 16 87 16 41 0
52 15 23 31 -57 30 -409 56 -584 43z m214 -538 c67 -49 199 -189 258 -274 58
-82 123 -211 158 -310 13 -37 28 -68 34 -70 14 -5 40 11 115 68 l64 49 7 -42
c14 -100 28 -168 34 -172 4 -2 38 11 77 29 166 79 312 115 500 123 164 7 260
-2 269 -25 4 -9 9 -71 12 -137 9 -207 -31 -409 -119 -598 -23 -48 -39 -90 -35
-93 10 -11 120 -34 159 -34 49 0 54 -12 20 -52 -31 -36 -92 -128 -92 -138 0
-3 33 -17 73 -29 207 -67 421 -217 578 -404 l49 -58 -22 -32 c-43 -60 -172
-188 -246 -244 -103 -78 -220 -141 -335 -183 -53 -19 -97 -39 -97 -43 0 -4 27
-44 60 -89 64 -88 64 -97 0 -98 -48 -1 -143 -24 -147 -36 -2 -6 12 -41 30 -80
72 -147 115 -316 124 -484 6 -109 -2 -246 -16 -269 -12 -18 -254 -27 -363 -12
-155 21 -238 45 -401 119 -42 19 -79 33 -81 31 -2 -2 -12 -52 -22 -110 l-17
-106 -65 50 c-77 58 -109 74 -120 61 -5 -5 -23 -49 -41 -99 -36 -97 -122 -256
-174 -320 -55 -69 -186 -201 -231 -233 -41 -30 -44 -30 -67 -15 -94 64 -235
216 -306 328 -45 72 -117 221 -138 285 -10 30 -20 58 -24 62 -7 8 -128 -69
-150 -96 -22 -26 -41 -20 -41 13 0 31 -27 172 -35 179 -2 2 -37 -12 -78 -31
-114 -54 -243 -94 -360 -111 -107 -16 -277 -20 -356 -8 -57 9 -61 22 -61 207
-1 213 35 378 120 557 27 57 35 85 28 89 -11 7 -61 17 -171 34 l-38 6 33 42
c42 52 88 124 88 136 0 5 -24 16 -52 25 -146 47 -327 153 -463 272 -55 48
-165 172 -173 195 -5 12 92 130 150 185 65 60 170 138 248 184 65 38 256 120
280 120 5 0 10 5 10 10 0 14 -46 86 -87 137 -40 49 -50 42 90 64 49 7 81 17
84 26 3 8 -13 53 -35 101 -93 203 -134 464 -107 684 l7 55 51 7 c92 11 270 6
367 -9 108 -18 269 -69 359 -114 33 -17 62 -31 65 -31 6 0 24 87 32 153 3 31
10 57 15 57 4 0 38 -22 74 -50 94 -71 105 -76 112 -51 14 54 96 240 132 300
64 105 168 229 261 308 46 40 86 73 88 73 3 0 25 -16 51 -34z"/>
<path d="M2918 4897 c-139 -117 -270 -321 -322 -498 -33 -114 -50 -264 -41
-369 l6 -85 -81 88 c-129 138 -306 245 -488 296 -110 30 -253 45 -354 37 l-86
-8 -8 -76 c-30 -327 110 -664 369 -889 l48 -41 -133 0 c-73 0 -162 -5 -198
-11 -231 -41 -461 -170 -614 -344 l-58 -67 17 -26 c33 -51 172 -180 245 -228
96 -64 191 -107 310 -142 87 -26 109 -28 262 -29 93 0 168 -3 168 -6 0 -4 -12
-14 -26 -24 -15 -9 -53 -44 -86 -77 -222 -224 -338 -551 -302 -854 l6 -51 82
-7 c163 -13 368 25 521 98 130 61 206 115 313 223 l93 94 -6 -98 c-21 -307
127 -652 362 -847 l66 -55 48 40 c197 165 328 395 369 651 7 41 11 129 9 196
l-4 121 45 -52 c144 -167 330 -285 535 -338 97 -26 262 -41 351 -33 91 8 88 0
81 207 -4 122 -10 169 -30 237 -36 123 -45 144 -95 234 -60 108 -118 182 -207
263 -41 37 -75 70 -75 73 0 3 75 5 168 6 151 1 176 3 257 28 115 34 236 92
331 157 79 55 234 210 234 235 0 22 -137 161 -220 223 -196 146 -445 218 -704
203 l-80 -4 62 51 c149 124 271 317 329 521 20 67 26 118 30 237 8 210 12 200
-94 209 -320 27 -662 -120 -878 -378 l-40 -48 4 116 c7 238 -52 446 -181 638
-45 65 -150 180 -210 227 l-37 30 -63 -54z m126 -525 c177 -231 232 -553 145
-846 -11 -37 -19 -70 -17 -71 2 -2 15 -6 30 -10 24 -6 29 -2 52 42 34 68 134
200 188 250 163 149 350 238 542 258 l69 7 -6 -84 c-20 -265 -206 -545 -465
-696 -88 -52 -90 -54 -81 -81 l10 -28 87 25 c78 23 105 26 262 26 206 -1 278
-16 425 -89 92 -45 205 -127 205 -149 0 -19 -126 -113 -203 -151 -40 -19 -112
-47 -162 -62 -83 -24 -104 -27 -260 -27 -142 1 -183 4 -245 21 -41 12 -82 24
-90 27 -11 5 -19 -3 -27 -24 -11 -28 -10 -31 22 -46 63 -30 176 -111 237 -170
165 -161 272 -369 285 -558 l6 -83 -59 4 c-292 22 -578 217 -734 499 -33 59
-35 60 -62 50 -30 -11 -33 -18 -19 -45 6 -9 19 -64 30 -120 60 -296 -16 -596
-202 -805 -24 -27 -39 -17 -105 70 -151 200 -206 531 -132 801 25 91 25 87 -5
101 -23 10 -26 9 -41 -21 -34 -66 -118 -184 -173 -240 -168 -174 -368 -273
-590 -290 l-53 -4 6 71 c28 293 226 577 506 729 44 24 50 31 44 50 -10 36 -16
37 -76 17 -193 -63 -468 -49 -669 35 -75 32 -182 100 -223 144 l-29 30 29 25
c47 43 157 114 210 136 214 92 502 106 706 34 38 -13 39 -13 48 12 14 36 14
37 -32 59 -53 25 -181 115 -231 163 -66 63 -155 190 -203 287 -46 94 -84 238
-84 318 l0 39 63 -7 c224 -24 411 -118 575 -289 64 -66 170 -216 185 -259 1
-5 16 -7 34 -3 l30 7 -24 82 c-57 199 -45 449 32 640 45 110 148 257 181 257
7 0 33 -26 58 -58z"/>
<path d="M2911 3348 c-126 -19 -258 -118 -313 -234 -78 -167 -49 -351 77 -483
82 -86 162 -123 280 -129 111 -6 175 11 262 67 73 47 133 119 165 198 18 48
23 77 23 163 0 98 -3 110 -32 170 -54 110 -141 193 -243 229 -51 19 -157 28
-219 19z m206 -154 c112 -54 169 -158 161 -294 -4 -67 -9 -85 -37 -129 -62
-96 -147 -143 -261 -144 -130 -2 -247 85 -285 209 -28 94 -14 186 42 266 30
45 112 101 168 116 59 16 152 6 212 -24z"/>
</g>
</svg>